<svg width="19" height="18" viewBox="0 0 19 18" fill="none" xmlns="http://www.w3.org/2000/svg">
<path d="M9.5 12C10.2956 12 11.0587 11.6839 11.6213 11.1213C12.1839 10.5587 12.5 9.79565 12.5 9C12.5 8.20435 12.1839 7.44129 11.6213 6.87868C11.0587 6.31607 10.2956 6 9.5 6C8.70435 6 7.94129 6.31607 7.37868 6.87868C6.81607 7.44129 6.5 8.20435 6.5 9C6.5 9.79565 6.81607 10.5587 7.37868 11.1213C7.94129 11.6839 8.70435 12 9.5 12Z" fill="#98A2B3"/>
<path fill-rule="evenodd" clip-rule="evenodd" d="M9.5 0C9.76522 0 10.0196 0.105357 10.2071 0.292893C10.3946 0.48043 10.5 0.734784 10.5 1V2.07C11.996 2.28623 13.3818 2.98059 14.4506 4.04939C15.5194 5.11818 16.2138 6.50405 16.43 8H17.5C17.7652 8 18.0196 8.10536 18.2071 8.29289C18.3946 8.48043 18.5 8.73478 18.5 9C18.5 9.26522 18.3946 9.51957 18.2071 9.70711C18.0196 9.89464 17.7652 10 17.5 10H16.43C16.2138 11.496 15.5194 12.8818 14.4506 13.9506C13.3818 15.0194 11.996 15.7138 10.5 15.93V17C10.5 17.2652 10.3946 17.5196 10.2071 17.7071C10.0196 17.8946 9.76522 18 9.5 18C9.23478 18 8.98043 17.8946 8.79289 17.7071C8.60536 17.5196 8.5 17.2652 8.5 17V15.93C7.00405 15.7138 5.61818 15.0194 4.54939 13.9506C3.48059 12.8818 2.78623 11.496 2.57 10H1.5C1.23478 10 0.98043 9.89464 0.792893 9.70711C0.605357 9.51957 0.5 9.26522 0.5 9C0.5 8.73478 0.605357 8.48043 0.792893 8.29289C0.98043 8.10536 1.23478 8 1.5 8H2.57C2.78638 6.50411 3.4808 5.11833 4.54956 4.04956C5.61833 2.9808 7.00411 2.28638 8.5 2.07V1C8.5 0.734784 8.60536 0.48043 8.79289 0.292893C8.98043 0.105357 9.23478 0 9.5 0ZM4.5 9C4.5 7.67392 5.02678 6.40215 5.96447 5.46447C6.90215 4.52678 8.17392 4 9.5 4C10.8261 4 12.0979 4.52678 13.0355 5.46447C13.9732 6.40215 14.5 7.67392 14.5 9C14.5 10.3261 13.9732 11.5979 13.0355 12.5355C12.0979 13.4732 10.8261 14 9.5 14C8.17392 14 6.90215 13.4732 5.96447 12.5355C5.02678 11.5979 4.5 10.3261 4.5 9Z" fill="#98A2B3"/>
</svg>
